<svg width="46" height="46" viewBox="0 0 46 46" fill="none" xmlns="http://www.w3.org/2000/svg">
<circle cx="23" cy="23" r="23" fill="black"/>
<mask id="path-2-outside-1_133_386" maskUnits="userSpaceOnUse" x="9.05664" y="10.0352" width="27" height="27" fill="black">
<rect fill="white" x="9.05664" y="10.0352" width="27" height="27"/>
<path fill-rule="evenodd" clip-rule="evenodd" d="M14.7431 31.4854V18.1942H21.4077V31.6245C21.4077 32.9594 21.7366 33.9193 22.3508 34.5417C22.9638 35.1629 23.7924 35.378 24.6457 35.378C25.4505 35.378 25.7879 35.3362 26.0654 35.3019L26.0655 35.3019C26.1564 35.2906 26.2409 35.2801 26.3334 35.2722L26.7019 35.2406V33.5893L26.1729 33.771C26.1285 33.7862 25.9772 33.811 25.7086 33.8288C25.458 33.8455 25.1464 33.8541 24.8145 33.8541C24.2814 33.8541 23.8338 33.8179 23.5036 33.554C23.1947 33.3071 22.8868 32.7689 22.8868 31.4854V18.1942H29.5515V31.6245C29.5515 32.9594 29.8803 33.9193 30.4945 34.5417C31.1076 35.1629 31.9361 35.378 32.7894 35.378C33.5942 35.378 33.9316 35.3362 34.2092 35.3019C34.3001 35.2906 34.3847 35.2801 34.4771 35.2722L34.8457 35.2406V33.5893L34.3166 33.771C34.2722 33.7862 34.1209 33.811 33.8523 33.8288C33.6018 33.8455 33.2901 33.8541 32.9582 33.8541C32.4252 33.8541 31.9775 33.8179 31.6473 33.554C31.3384 33.3071 31.0306 32.7689 31.0306 31.4854V18.1942H34.9469V16.6703H31.0306V11.0352H29.5515V16.6703H22.8868V11.0352H21.4077V16.6703H14.7431V11.0352H13.264V16.6703H10.0566V18.1942H13.264V31.6245C13.264 32.9594 13.5928 33.9193 14.2071 34.5417C14.8201 35.1629 15.6487 35.378 16.5019 35.378C17.3067 35.378 17.6442 35.3362 17.9217 35.3019H17.9217C18.0127 35.2906 18.0972 35.2801 18.1896 35.2722L18.5582 35.2406V33.5893L18.0292 33.771C17.9848 33.7862 17.8335 33.811 17.5649 33.8288C17.3143 33.8455 17.0026 33.8541 16.6707 33.8541C16.1377 33.8541 15.6901 33.8179 15.3598 33.554C15.051 33.3071 14.7431 32.7689 14.7431 31.4854ZM26.4013 17.0844V17.7801H22.4849V31.4854C22.4849 33.9336 23.5568 34.2312 24.5404 34.2643C23.5564 34.2315 22.4834 33.9349 22.4834 31.4853V17.7801H26.3997V17.0844H26.4013ZM22.4849 17.0844V11.4493H22.4834V17.0844H22.4849ZM26.2985 34.1643V34.8595C26.1948 34.8684 26.1044 34.8796 26.0097 34.8913H26.0097L26.0097 34.8913L26.0096 34.8913H26.0096C25.7343 34.9253 25.4229 34.9638 24.6441 34.9638C24.6056 34.9638 24.5674 34.9634 24.5293 34.9624C24.5679 34.9634 24.6067 34.9639 24.6457 34.9639C25.4244 34.9639 25.7359 34.9254 26.0112 34.8913C26.1059 34.8796 26.1963 34.8684 26.3 34.8595V34.1638C26.2995 34.164 26.299 34.1642 26.2985 34.1643ZM21.8081 17.7801V17.7801H18.6023V17.7801H21.8081ZM26.746 17.7801V17.7801H29.9519V17.7801H26.746ZM32.673 34.9624C32.7116 34.9634 32.7504 34.9639 32.7894 34.9639C33.5681 34.9639 33.8796 34.9254 34.1549 34.8913C34.2496 34.8796 34.34 34.8684 34.4437 34.8595V34.1638C34.4432 34.164 34.4427 34.1642 34.4422 34.1643V34.8595C34.3385 34.8684 34.2481 34.8796 34.1535 34.8913L34.1534 34.8913L34.1534 34.8913H34.1534C33.878 34.9253 33.5666 34.9638 32.7879 34.9638C32.7494 34.9638 32.7111 34.9634 32.673 34.9624ZM32.7148 34.2653C31.723 34.2372 30.6286 33.9592 30.6286 31.4854V17.7801H34.545V17.0844H34.5435V17.7801H30.6271V31.4853C30.6271 33.9604 31.7226 34.2374 32.7148 34.2653ZM30.6286 17.0844V11.4493H30.6271V17.0844H30.6286ZM17.8674 34.8913C17.9622 34.8796 18.0526 34.8684 18.1563 34.8595V34.1638C18.1558 34.164 18.1552 34.1642 18.1547 34.1644V34.8595C18.0511 34.8684 17.9606 34.8796 17.866 34.8913L17.8659 34.8913H17.8659C17.5906 34.9253 17.2791 34.9638 16.5004 34.9638C16.4619 34.9638 16.4236 34.9634 16.3856 34.9624C16.4241 34.9634 16.4629 34.9639 16.5019 34.9639C17.2807 34.9639 17.5921 34.9254 17.8674 34.8913ZM10.4586 17.7801H13.6644V17.7801H10.4586V17.7801ZM14.3412 11.4493H14.3396V17.0844H14.3412V11.4493ZM18.2576 17.0844H18.256V17.7801H14.3396V31.4853C14.3396 33.9604 15.4352 34.2374 16.4274 34.2653C15.4356 34.2372 14.3412 33.9592 14.3412 31.4854V17.7801H18.2576V17.0844Z"/>
</mask>
<path fill-rule="evenodd" clip-rule="evenodd" d="M14.7431 31.4854V18.1942H21.4077V31.6245C21.4077 32.9594 21.7366 33.9193 22.3508 34.5417C22.9638 35.1629 23.7924 35.378 24.6457 35.378C25.4505 35.378 25.7879 35.3362 26.0654 35.3019L26.0655 35.3019C26.1564 35.2906 26.2409 35.2801 26.3334 35.2722L26.7019 35.2406V33.5893L26.1729 33.771C26.1285 33.7862 25.9772 33.811 25.7086 33.8288C25.458 33.8455 25.1464 33.8541 24.8145 33.8541C24.2814 33.8541 23.8338 33.8179 23.5036 33.554C23.1947 33.3071 22.8868 32.7689 22.8868 31.4854V18.1942H29.5515V31.6245C29.5515 32.9594 29.8803 33.9193 30.4945 34.5417C31.1076 35.1629 31.9361 35.378 32.7894 35.378C33.5942 35.378 33.9316 35.3362 34.2092 35.3019C34.3001 35.2906 34.3847 35.2801 34.4771 35.2722L34.8457 35.2406V33.5893L34.3166 33.771C34.2722 33.7862 34.1209 33.811 33.8523 33.8288C33.6018 33.8455 33.2901 33.8541 32.9582 33.8541C32.4252 33.8541 31.9775 33.8179 31.6473 33.554C31.3384 33.3071 31.0306 32.7689 31.0306 31.4854V18.1942H34.9469V16.6703H31.0306V11.0352H29.5515V16.6703H22.8868V11.0352H21.4077V16.6703H14.7431V11.0352H13.264V16.6703H10.0566V18.1942H13.264V31.6245C13.264 32.9594 13.5928 33.9193 14.2071 34.5417C14.8201 35.1629 15.6487 35.378 16.5019 35.378C17.3067 35.378 17.6442 35.3362 17.9217 35.3019H17.9217C18.0127 35.2906 18.0972 35.2801 18.1896 35.2722L18.5582 35.2406V33.5893L18.0292 33.771C17.9848 33.7862 17.8335 33.811 17.5649 33.8288C17.3143 33.8455 17.0026 33.8541 16.6707 33.8541C16.1377 33.8541 15.6901 33.8179 15.3598 33.554C15.051 33.3071 14.7431 32.7689 14.7431 31.4854ZM26.4013 17.0844V17.7801H22.4849V31.4854C22.4849 33.9336 23.5568 34.2312 24.5404 34.2643C23.5564 34.2315 22.4834 33.9349 22.4834 31.4853V17.7801H26.3997V17.0844H26.4013ZM22.4849 17.0844V11.4493H22.4834V17.0844H22.4849ZM26.2985 34.1643V34.8595C26.1948 34.8684 26.1044 34.8796 26.0097 34.8913H26.0097L26.0097 34.8913L26.0096 34.8913H26.0096C25.7343 34.9253 25.4229 34.9638 24.6441 34.9638C24.6056 34.9638 24.5674 34.9634 24.5293 34.9624C24.5679 34.9634 24.6067 34.9639 24.6457 34.9639C25.4244 34.9639 25.7359 34.9254 26.0112 34.8913C26.1059 34.8796 26.1963 34.8684 26.3 34.8595V34.1638C26.2995 34.164 26.299 34.1642 26.2985 34.1643ZM21.8081 17.7801V17.7801H18.6023V17.7801H21.8081ZM26.746 17.7801V17.7801H29.9519V17.7801H26.746ZM32.673 34.9624C32.7116 34.9634 32.7504 34.9639 32.7894 34.9639C33.5681 34.9639 33.8796 34.9254 34.1549 34.8913C34.2496 34.8796 34.34 34.8684 34.4437 34.8595V34.1638C34.4432 34.164 34.4427 34.1642 34.4422 34.1643V34.8595C34.3385 34.8684 34.2481 34.8796 34.1535 34.8913L34.1534 34.8913L34.1534 34.8913H34.1534C33.878 34.9253 33.5666 34.9638 32.7879 34.9638C32.7494 34.9638 32.7111 34.9634 32.673 34.9624ZM32.7148 34.2653C31.723 34.2372 30.6286 33.9592 30.6286 31.4854V17.7801H34.545V17.0844H34.5435V17.7801H30.6271V31.4853C30.6271 33.9604 31.7226 34.2374 32.7148 34.2653ZM30.6286 17.0844V11.4493H30.6271V17.0844H30.6286ZM17.8674 34.8913C17.9622 34.8796 18.0526 34.8684 18.1563 34.8595V34.1638C18.1558 34.164 18.1552 34.1642 18.1547 34.1644V34.8595C18.0511 34.8684 17.9606 34.8796 17.866 34.8913L17.8659 34.8913H17.8659C17.5906 34.9253 17.2791 34.9638 16.5004 34.9638C16.4619 34.9638 16.4236 34.9634 16.3856 34.9624C16.4241 34.9634 16.4629 34.9639 16.5019 34.9639C17.2807 34.9639 17.5921 34.9254 17.8674 34.8913ZM10.4586 17.7801H13.6644V17.7801H10.4586V17.7801ZM14.3412 11.4493H14.3396V17.0844H14.3412V11.4493ZM18.2576 17.0844H18.256V17.7801H14.3396V31.4853C14.3396 33.9604 15.4352 34.2374 16.4274 34.2653C15.4356 34.2372 14.3412 33.9592 14.3412 31.4854V17.7801H18.2576V17.0844Z" fill="white"/>
<path d="M14.7431 18.1942V17.1942H13.7431V18.1942H14.7431ZM21.4077 18.1942H22.4077V17.1942H21.4077V18.1942ZM22.3508 34.5417L21.639 35.2441L21.639 35.2441L22.3508 34.5417ZM26.0654 35.3019L26.1883 36.2943L26.1976 36.2931L26.2069 36.2918L26.0654 35.3019ZM26.0655 35.3019L25.9426 34.3094L25.9333 34.3106L25.9241 34.3119L26.0655 35.3019ZM26.3334 35.2722L26.2478 34.2759H26.2478L26.3334 35.2722ZM26.7019 35.2406L26.7875 36.2369L27.7019 36.1584V35.2406H26.7019ZM26.7019 33.5893H27.7019V32.1885L26.3771 32.6435L26.7019 33.5893ZM26.1729 33.771L26.4977 34.7168L26.4977 34.7167L26.1729 33.771ZM25.7086 33.8288L25.7749 34.8266H25.7749L25.7086 33.8288ZM23.5036 33.554L24.1279 32.7728L24.1279 32.7728L23.5036 33.554ZM22.8868 18.1942V17.1942H21.8868V18.1942H22.8868ZM29.5515 18.1942H30.5515V17.1942H29.5515V18.1942ZM30.4945 34.5417L29.7828 35.2441V35.2441L30.4945 34.5417ZM34.2092 35.3019L34.332 36.2943L34.2092 35.3019ZM34.4771 35.2722L34.3916 34.2759H34.3915L34.4771 35.2722ZM34.8457 35.2406L34.9312 36.2369L35.8457 36.1584V35.2406H34.8457ZM34.8457 33.5893H35.8457V32.1885L34.5208 32.6435L34.8457 33.5893ZM34.3166 33.771L33.9918 32.8252L33.9918 32.8252L34.3166 33.771ZM33.8523 33.8288L33.9187 34.8266H33.9187L33.8523 33.8288ZM31.6473 33.554L32.2716 32.7728L32.2716 32.7728L31.6473 33.554ZM31.0306 18.1942V17.1942H30.0306V18.1942H31.0306ZM34.9469 18.1942V19.1942H35.9469V18.1942H34.9469ZM34.9469 16.6703H35.9469V15.6703H34.9469V16.6703ZM31.0306 16.6703H30.0306V17.6703H31.0306V16.6703ZM31.0306 11.0352H32.0306V10.0352H31.0306V11.0352ZM29.5515 11.0352V10.0352H28.5515V11.0352H29.5515ZM29.5515 16.6703V17.6703H30.5515V16.6703H29.5515ZM22.8868 16.6703H21.8868V17.6703H22.8868V16.6703ZM22.8868 11.0352H23.8868V10.0352H22.8868V11.0352ZM21.4077 11.0352V10.0352H20.4077V11.0352H21.4077ZM21.4077 16.6703V17.6703H22.4077V16.6703H21.4077ZM14.7431 16.6703H13.7431V17.6703H14.7431V16.6703ZM14.7431 11.0352H15.7431V10.0352H14.7431V11.0352ZM13.264 11.0352V10.0352H12.264V11.0352H13.264ZM13.264 16.6703V17.6703H14.264V16.6703H13.264ZM10.0566 16.6703V15.6703H9.05664V16.6703H10.0566ZM10.0566 18.1942H9.05664V19.1942H10.0566V18.1942ZM13.264 18.1942H14.264V17.1942H13.264V18.1942ZM14.2071 34.5417L13.4953 35.2441L13.4953 35.2441L14.2071 34.5417ZM17.9217 35.3019V34.3019H17.8601L17.7989 34.3094L17.9217 35.3019ZM17.9217 35.3019V36.3019H17.9834L18.0446 36.2943L17.9217 35.3019ZM18.1896 35.2722L18.1041 34.2759L18.1041 34.2759L18.1896 35.2722ZM18.5582 35.2406L18.6437 36.2369L19.5582 36.1584V35.2406H18.5582ZM18.5582 33.5893H19.5582V32.1885L18.2334 32.6435L18.5582 33.5893ZM18.0292 33.771L18.354 34.7167H18.354L18.0292 33.771ZM17.5649 33.8288L17.6312 34.8266H17.6312L17.5649 33.8288ZM15.3598 33.554L15.9841 32.7728L15.9841 32.7728L15.3598 33.554ZM26.4013 17.7801V18.7801H27.4013V17.7801H26.4013ZM26.4013 17.0844H27.4013V16.0844H26.4013V17.0844ZM22.4849 17.7801V16.7801H21.4849V17.7801H22.4849ZM24.5404 34.2643L24.507 35.2637L24.574 33.2649L24.5404 34.2643ZM22.4834 17.7801V16.7801H21.4834V17.7801H22.4834ZM26.3997 17.7801V18.7801H27.3997V17.7801H26.3997ZM26.3997 17.0844V16.0844H25.3997V17.0844H26.3997ZM22.4849 17.0844V18.0844H23.4849V17.0844H22.4849ZM22.4849 11.4493H23.4849V10.4493H22.4849V11.4493ZM22.4834 11.4493V10.4493H21.4834V11.4493H22.4834ZM22.4834 17.0844H21.4834V18.0844H22.4834V17.0844ZM26.2985 34.1643L25.978 33.2171L25.2985 33.447V34.1643H26.2985ZM26.2985 34.8595L26.384 35.8558L27.2985 35.7773V34.8595H26.2985ZM26.0097 34.8913V35.8913H26.0713L26.1325 35.8837L26.0097 34.8913ZM26.0097 34.8913V33.8913H25.927L25.8453 33.9049L26.0097 34.8913ZM26.0097 34.8913L26.1201 35.8852L26.1472 35.8821L26.1741 35.8777L26.0097 34.8913ZM26.0096 34.8913V35.8913H26.065L26.1201 35.8852L26.0096 34.8913ZM26.0096 34.8913V33.8913H25.948L25.8869 33.8988L26.0096 34.8913ZM24.5293 34.9624L24.5543 33.9627L24.5039 35.9621L24.5293 34.9624ZM26.0112 34.8913L26.1339 35.8838L26.1339 35.8838L26.0112 34.8913ZM26.3 34.8595L26.3855 35.8559L27.3 35.7774V34.8595H26.3ZM26.3 34.1638H27.3V32.7616L25.9742 33.2184L26.3 34.1638ZM21.8081 17.7801V18.7801H22.8081V17.7801H21.8081ZM21.8081 17.7801H22.8081V16.7801H21.8081V17.7801ZM18.6023 17.7801V16.7801H17.6023V17.7801H18.6023ZM18.6023 17.7801H17.6023V18.7801H18.6023V17.7801ZM26.746 17.7801V16.7801H25.746V17.7801H26.746ZM26.746 17.7801H25.746V18.7801H26.746V17.7801ZM29.9519 17.7801V18.7801H30.9519V17.7801H29.9519ZM29.9519 17.7801H30.9519V16.7801H29.9519V17.7801ZM32.673 34.9624L32.6981 33.9627L32.6476 35.9621L32.673 34.9624ZM34.1549 34.8913L34.2776 35.8838L34.2776 35.8838L34.1549 34.8913ZM34.4437 34.8595L34.5293 35.8559L35.4437 35.7774V34.8595H34.4437ZM34.4437 34.1638H35.4437V32.7616L34.118 33.2184L34.4437 34.1638ZM34.4422 34.1643L34.1217 33.2171L33.4422 33.447V34.1643H34.4422ZM34.4422 34.8595L34.5277 35.8558L35.4422 35.7773V34.8595H34.4422ZM34.1535 34.8913L34.0307 33.8988L34.0098 33.9014L33.9891 33.9049L34.1535 34.8913ZM34.1534 34.8913L34.2639 35.8852L34.2909 35.8821L34.3178 35.8777L34.1534 34.8913ZM34.1534 34.8913V35.8913H34.2088L34.2638 35.8852L34.1534 34.8913ZM34.1534 34.8913V33.8913H34.0918L34.0306 33.8988L34.1534 34.8913ZM32.7148 34.2653L32.6868 35.2649L32.7431 33.2657L32.7148 34.2653ZM30.6286 17.7801V16.7801H29.6286V17.7801H30.6286ZM34.545 17.7801V18.7801H35.545V17.7801H34.545ZM34.545 17.0844H35.545V16.0844H34.545V17.0844ZM34.5435 17.0844V16.0844H33.5435V17.0844H34.5435ZM34.5435 17.7801V18.7801H35.5435V17.7801H34.5435ZM30.6271 17.7801V16.7801H29.6271V17.7801H30.6271ZM30.6286 17.0844V18.0844H31.6286V17.0844H30.6286ZM30.6286 11.4493H31.6286V10.4493H30.6286V11.4493ZM30.6271 11.4493V10.4493H29.6271V11.4493H30.6271ZM30.6271 17.0844H29.6271V18.0844H30.6271V17.0844ZM18.1563 34.8595L18.2418 35.8559L19.1563 35.7774V34.8595H18.1563ZM17.8674 34.8913L17.7447 33.8989L17.7447 33.8989L17.8674 34.8913ZM18.1563 34.1638H19.1563V32.7616L17.8305 33.2184L18.1563 34.1638ZM18.1547 34.1644L17.8348 33.2169L17.1547 33.4465V34.1644H18.1547ZM18.1547 34.8595L18.2403 35.8558L19.1547 35.7773V34.8595H18.1547ZM17.866 34.8913L17.968 35.8861L17.9784 35.885L17.9887 35.8837L17.866 34.8913ZM17.8659 34.8913V35.8913H17.9171L17.9679 35.8861L17.8659 34.8913ZM17.8659 34.8913V33.8913H17.8043L17.7432 33.8988L17.8659 34.8913ZM16.3856 34.9624L16.4106 33.9627L16.3602 35.9621L16.3856 34.9624ZM13.6644 17.7801V18.7801H14.6644V17.7801H13.6644ZM10.4586 17.7801H9.45857V18.7801H10.4586V17.7801ZM13.6644 17.7801H14.6644V16.7801H13.6644V17.7801ZM10.4586 17.7801V16.7801H9.45857V17.7801H10.4586ZM14.3396 11.4493V10.4493H13.3396V11.4493H14.3396ZM14.3412 11.4493H15.3412V10.4493H14.3412V11.4493ZM14.3396 17.0844H13.3396V18.0844H14.3396V17.0844ZM14.3412 17.0844V18.0844H15.3412V17.0844H14.3412ZM18.256 17.0844V16.0844H17.256V17.0844H18.256ZM18.2576 17.0844H19.2576V16.0844H18.2576V17.0844ZM18.256 17.7801V18.7801H19.256V17.7801H18.256ZM14.3396 17.7801V16.7801H13.3396V17.7801H14.3396ZM16.4274 34.2653L16.3994 35.2649L16.4556 33.2657L16.4274 34.2653ZM14.3412 17.7801V16.7801H13.3412V17.7801H14.3412ZM18.2576 17.7801V18.7801H19.2576V17.7801H18.2576ZM13.7431 18.1942V31.4854H15.7431V18.1942H13.7431ZM21.4077 17.1942H14.7431V19.1942H21.4077V17.1942ZM22.4077 31.6245V18.1942H20.4077V31.6245H22.4077ZM23.0625 33.8393C22.6998 33.4717 22.4077 32.81 22.4077 31.6245H20.4077C20.4077 33.1089 20.7733 34.3669 21.639 35.2441L23.0625 33.8393ZM24.6457 34.378C23.9482 34.378 23.4215 34.203 23.0625 33.8393L21.639 35.2441C22.5061 36.1227 23.6366 36.378 24.6457 36.378V34.378ZM25.9426 34.3094C25.6983 34.3397 25.4025 34.378 24.6457 34.378V36.378C25.4985 36.378 25.8775 36.3328 26.1883 36.2943L25.9426 34.3094ZM25.9241 34.3119L25.924 34.3119L26.2069 36.2918L26.2069 36.2918L25.9241 34.3119ZM26.2478 34.2759C26.1339 34.2856 26.0313 34.2985 25.9426 34.3094L26.1883 36.2943C26.2815 36.2827 26.348 36.2746 26.4189 36.2685L26.2478 34.2759ZM26.6164 34.2442L26.2478 34.2759L26.4189 36.2685L26.7875 36.2369L26.6164 34.2442ZM25.7019 33.5893V35.2406H27.7019V33.5893H25.7019ZM26.4977 34.7167L27.0267 34.5351L26.3771 32.6435L25.8481 32.8252L26.4977 34.7167ZM25.7749 34.8266C25.9261 34.8166 26.0539 34.804 26.1579 34.79C26.233 34.78 26.3715 34.7601 26.4977 34.7168L25.8481 32.8252C25.8816 32.8137 25.9063 32.8075 25.9145 32.8055C25.92 32.8042 25.9241 32.8033 25.9264 32.8028C25.9288 32.8023 25.9301 32.802 25.9302 32.802C25.9302 32.802 25.9294 32.8021 25.9276 32.8025C25.9259 32.8028 25.9233 32.8032 25.92 32.8037C25.9132 32.8048 25.9039 32.8062 25.8918 32.8078C25.8418 32.8145 25.7597 32.8232 25.6423 32.831L25.7749 34.8266ZM24.8145 34.8541C25.1611 34.8541 25.496 34.8452 25.7749 34.8266L25.6423 32.831C25.4201 32.8458 25.1316 32.8541 24.8145 32.8541V34.8541ZM22.8792 34.3352C23.5152 34.8434 24.3074 34.8541 24.8145 34.8541V32.8541C24.5591 32.8541 24.3929 32.8441 24.2708 32.8208C24.16 32.7996 24.131 32.7754 24.1279 32.7728L22.8792 34.3352ZM21.8868 31.4854C21.8868 32.8964 22.2229 33.8106 22.8792 34.3352L24.1279 32.7728C24.1278 32.7728 24.1179 32.7653 24.1011 32.7409C24.0835 32.7153 24.0538 32.6644 24.0219 32.5742C23.9559 32.3883 23.8868 32.0541 23.8868 31.4854H21.8868ZM21.8868 18.1942V31.4854H23.8868V18.1942H21.8868ZM29.5515 17.1942H22.8868V19.1942H29.5515V17.1942ZM30.5515 31.6245V18.1942H28.5515V31.6245H30.5515ZM31.2063 33.8393C30.8435 33.4717 30.5515 32.81 30.5515 31.6245H28.5515C28.5515 33.1089 28.9171 34.3669 29.7828 35.2441L31.2063 33.8393ZM32.7894 34.378C32.0919 34.378 31.5653 34.203 31.2063 33.8393L29.7828 35.2441C30.6498 36.1227 31.7803 36.378 32.7894 36.378V34.378ZM34.0863 34.3094C33.842 34.3397 33.5462 34.378 32.7894 34.378V36.378C33.6422 36.378 34.0212 36.3328 34.332 36.2943L34.0863 34.3094ZM34.3915 34.2759C34.2776 34.2857 34.175 34.2985 34.0863 34.3094L34.332 36.2943C34.4252 36.2827 34.4917 36.2746 34.5627 36.2685L34.3915 34.2759ZM34.7601 34.2442L34.3916 34.2759L34.5626 36.2685L34.9312 36.2369L34.7601 34.2442ZM33.8457 33.5893V35.2406H35.8457V33.5893H33.8457ZM34.6414 34.7167L35.1705 34.5351L34.5208 32.6435L33.9918 32.8252L34.6414 34.7167ZM33.9187 34.8266C34.0698 34.8166 34.1977 34.804 34.3016 34.79C34.3767 34.78 34.5152 34.7601 34.6414 34.7167L33.9918 32.8252C34.0253 32.8137 34.05 32.8075 34.0582 32.8055C34.0637 32.8042 34.0678 32.8033 34.0701 32.8028C34.0725 32.8023 34.0738 32.802 34.0739 32.802C34.074 32.802 34.0732 32.8021 34.0714 32.8025C34.0696 32.8028 34.0671 32.8032 34.0637 32.8037C34.0569 32.8048 34.0476 32.8062 34.0355 32.8078C33.9856 32.8145 33.9035 32.8232 33.786 32.831L33.9187 34.8266ZM32.9582 34.8541C33.3048 34.8541 33.6397 34.8452 33.9187 34.8266L33.786 32.831C33.5639 32.8458 33.2754 32.8541 32.9582 32.8541V34.8541ZM31.023 34.3352C31.6589 34.8434 32.4511 34.8541 32.9582 34.8541V32.8541C32.7028 32.8541 32.5366 32.8441 32.4145 32.8208C32.3037 32.7996 32.2748 32.7754 32.2716 32.7728L31.023 34.3352ZM30.0306 31.4854C30.0306 32.8964 30.3666 33.8106 31.023 34.3352L32.2716 32.7728C32.2715 32.7728 32.2616 32.7653 32.2448 32.7409C32.2273 32.7153 32.1976 32.6644 32.1656 32.5742C32.0997 32.3883 32.0306 32.0541 32.0306 31.4854H30.0306ZM30.0306 18.1942V31.4854H32.0306V18.1942H30.0306ZM34.9469 17.1942H31.0306V19.1942H34.9469V17.1942ZM33.9469 16.6703V18.1942H35.9469V16.6703H33.9469ZM31.0306 17.6703H34.9469V15.6703H31.0306V17.6703ZM30.0306 11.0352V16.6703H32.0306V11.0352H30.0306ZM29.5515 12.0352H31.0306V10.0352H29.5515V12.0352ZM30.5515 16.6703V11.0352H28.5515V16.6703H30.5515ZM22.8868 17.6703H29.5515V15.6703H22.8868V17.6703ZM21.8868 11.0352V16.6703H23.8868V11.0352H21.8868ZM21.4077 12.0352H22.8868V10.0352H21.4077V12.0352ZM22.4077 16.6703V11.0352H20.4077V16.6703H22.4077ZM14.7431 17.6703H21.4077V15.6703H14.7431V17.6703ZM13.7431 11.0352V16.6703H15.7431V11.0352H13.7431ZM13.264 12.0352H14.7431V10.0352H13.264V12.0352ZM14.264 16.6703V11.0352H12.264V16.6703H14.264ZM10.0566 17.6703H13.264V15.6703H10.0566V17.6703ZM11.0566 18.1942V16.6703H9.05664V18.1942H11.0566ZM13.264 17.1942H10.0566V19.1942H13.264V17.1942ZM14.264 31.6245V18.1942H12.264V31.6245H14.264ZM14.9188 33.8393C14.5561 33.4717 14.264 32.81 14.264 31.6245H12.264C12.264 33.1089 12.6296 34.3669 13.4953 35.2441L14.9188 33.8393ZM16.5019 34.378C15.8045 34.378 15.2778 34.203 14.9188 33.8393L13.4953 35.2441C14.3624 36.1227 15.4929 36.378 16.5019 36.378V34.378ZM17.7989 34.3094C17.5546 34.3397 17.2588 34.378 16.5019 34.378V36.378C17.3547 36.378 17.7337 36.3328 18.0446 36.2943L17.7989 34.3094ZM17.9217 34.3019H17.9217V36.3019H17.9217V34.3019ZM18.1041 34.2759C17.9901 34.2857 17.8876 34.2985 17.7989 34.3094L18.0446 36.2943C18.1378 36.2827 18.2043 36.2746 18.2752 36.2685L18.1041 34.2759ZM18.4727 34.2442L18.1041 34.2759L18.2752 36.2685L18.6437 36.2369L18.4727 34.2442ZM17.5582 33.5893V35.2406H19.5582V33.5893H17.5582ZM18.354 34.7167L18.883 34.5351L18.2334 32.6435L17.7044 32.8252L18.354 34.7167ZM17.6312 34.8266C17.7823 34.8166 17.9102 34.804 18.0142 34.79C18.0893 34.78 18.2278 34.7601 18.354 34.7167L17.7044 32.8252C17.7379 32.8137 17.7625 32.8075 17.7707 32.8055C17.7763 32.8042 17.7803 32.8033 17.7827 32.8028C17.7851 32.8023 17.7864 32.802 17.7864 32.802C17.7865 32.802 17.7857 32.8021 17.7839 32.8025C17.7821 32.8028 17.7796 32.8032 17.7763 32.8037C17.7695 32.8048 17.7601 32.8062 17.748 32.8078C17.6981 32.8145 17.616 32.8232 17.4986 32.831L17.6312 34.8266ZM16.6707 34.8541C17.0173 34.8541 17.3522 34.8452 17.6312 34.8266L17.4986 32.831C17.2764 32.8458 16.9879 32.8541 16.6707 32.8541V34.8541ZM14.7355 34.3352C15.3714 34.8434 16.1636 34.8541 16.6707 34.8541V32.8541C16.4154 32.8541 16.2491 32.8441 16.127 32.8208C16.0163 32.7996 15.9873 32.7754 15.9841 32.7728L14.7355 34.3352ZM13.7431 31.4854C13.7431 32.8964 14.0791 33.8106 14.7355 34.3352L15.9841 32.7728C15.9841 32.7728 15.9742 32.7653 15.9574 32.7409C15.9398 32.7153 15.9101 32.6644 15.8781 32.5742C15.8122 32.3883 15.7431 32.0541 15.7431 31.4854H13.7431ZM27.4013 17.7801V17.0844H25.4013V17.7801H27.4013ZM22.4849 18.7801H26.4013V16.7801H22.4849V18.7801ZM23.4849 31.4854V17.7801H21.4849V31.4854H23.4849ZM24.574 33.2649C24.1405 33.2503 23.9559 33.1767 23.8451 33.0677C23.7323 32.9567 23.4849 32.5949 23.4849 31.4854H21.4849C21.4849 32.8242 21.7735 33.8353 22.4425 34.4934C23.1135 35.1535 23.9567 35.2452 24.5068 35.2637L24.574 33.2649ZM21.4834 31.4853C21.4834 32.8248 21.7723 33.8363 22.442 34.4944C23.1135 35.1542 23.9572 35.2454 24.507 35.2637L24.5737 33.2649C24.1396 33.2504 23.9547 33.1769 23.8438 33.0678C23.731 32.957 23.4834 32.5954 23.4834 31.4853H21.4834ZM21.4834 17.7801V31.4853H23.4834V17.7801H21.4834ZM26.3997 16.7801H22.4834V18.7801H26.3997V16.7801ZM25.3997 17.0844V17.7801H27.3997V17.0844H25.3997ZM26.4013 16.0844H26.3997V18.0844H26.4013V16.0844ZM23.4849 17.0844V11.4493H21.4849V17.0844H23.4849ZM22.4849 10.4493H22.4834V12.4493H22.4849V10.4493ZM21.4834 11.4493V17.0844H23.4834V11.4493H21.4834ZM22.4834 18.0844H22.4849V16.0844H22.4834V18.0844ZM25.2985 34.1643V34.8595H27.2985V34.1643H25.2985ZM26.2129 33.8631C26.0881 33.8739 25.9802 33.8873 25.887 33.8988L26.1325 35.8837C26.2286 35.8718 26.3015 35.8629 26.384 35.8558L26.2129 33.8631ZM26.0097 33.8913H26.0097V35.8913H26.0097V33.8913ZM25.8453 33.9049L25.8453 33.9049L26.1741 35.8777L26.1741 35.8777L25.8453 33.9049ZM25.8993 33.8974L25.8992 33.8974L26.1201 35.8852L26.1201 35.8852L25.8993 33.8974ZM26.0096 33.8913H26.0096V35.8913H26.0096V33.8913ZM25.8869 33.8988C25.646 33.9286 25.3759 33.9638 24.6441 33.9638V35.9638C25.4698 35.9638 25.8227 35.922 26.1323 35.8837L25.8869 33.8988ZM24.6441 33.9638C24.6138 33.9638 24.5838 33.9635 24.5543 33.9627L24.5043 35.9621C24.5509 35.9633 24.5975 35.9638 24.6441 35.9638V33.9638ZM24.5039 35.9621C24.5512 35.9633 24.5984 35.9639 24.6457 35.9639V33.9639C24.6149 33.9639 24.5846 33.9635 24.5547 33.9627L24.5039 35.9621ZM24.6457 35.9639C25.4714 35.9639 25.8242 35.9221 26.1339 35.8838L25.8884 33.8989C25.6475 33.9287 25.3774 33.9639 24.6457 33.9639V35.9639ZM26.1339 35.8838C26.23 35.8719 26.303 35.8629 26.3855 35.8559L26.2145 33.8632C26.0896 33.8739 25.9817 33.8873 25.8884 33.8989L26.1339 35.8838ZM27.3 34.8595V34.1638H25.3V34.8595H27.3ZM25.9742 33.2184C25.9764 33.2176 25.978 33.2171 25.978 33.2171L26.6189 35.1116C26.62 35.1113 26.6226 35.1104 26.6258 35.1093L25.9742 33.2184ZM22.8081 17.7801V17.7801H20.8081V17.7801H22.8081ZM21.8081 16.7801H18.6023V18.7801H21.8081V16.7801ZM17.6023 17.7801V17.7801H19.6023V17.7801H17.6023ZM18.6023 18.7801H21.8081V16.7801H18.6023V18.7801ZM25.746 17.7801V17.7801H27.746V17.7801H25.746ZM26.746 18.7801H29.9519V16.7801H26.746V18.7801ZM28.9519 17.7801V17.7801H30.9519V17.7801H28.9519ZM26.746 18.7801H29.9519V16.7801H26.746V18.7801ZM32.6476 35.9621C32.6949 35.9633 32.7422 35.9639 32.7894 35.9639V33.9639C32.7586 33.9639 32.7283 33.9635 32.6984 33.9627L32.6476 35.9621ZM32.7894 35.9639C33.6151 35.9639 33.968 35.9221 34.2776 35.8838L34.0322 33.8989C33.7912 33.9287 33.5212 33.9639 32.7894 33.9639V35.9639ZM34.2776 35.8838C34.3738 35.8719 34.4467 35.8629 34.5293 35.8559L34.3582 33.8632C34.2333 33.8739 34.1254 33.8873 34.0322 33.8989L34.2776 35.8838ZM35.4437 34.8595V34.1638H33.4437V34.8595H35.4437ZM34.118 33.2184C34.1201 33.2176 34.1217 33.2171 34.1217 33.2171L34.7626 35.1116C34.7637 35.1113 34.7663 35.1104 34.7695 35.1093L34.118 33.2184ZM35.4422 34.8595V34.1643H33.4422V34.8595H35.4422ZM34.2762 35.8837C34.3723 35.8718 34.4452 35.8629 34.5277 35.8558L34.3567 33.8631C34.2318 33.8739 34.124 33.8873 34.0307 33.8988L34.2762 35.8837ZM34.3178 35.8777L34.3179 35.8777L33.9891 33.9049L33.989 33.9049L34.3178 35.8777ZM34.2638 35.8852L34.2639 35.8852L34.043 33.8974L34.0429 33.8974L34.2638 35.8852ZM34.1534 35.8913H34.1534V33.8913H34.1534V35.8913ZM32.7879 35.9638C33.6136 35.9638 33.9664 35.922 34.2761 35.8837L34.0306 33.8988C33.7897 33.9286 33.5196 33.9638 32.7879 33.9638V35.9638ZM32.648 35.9621C32.6946 35.9633 32.7413 35.9638 32.7879 35.9638V33.9638C32.7575 33.9638 32.7276 33.9635 32.6981 33.9627L32.648 35.9621ZM32.7431 33.2657C32.2969 33.253 32.1066 33.1809 31.9929 33.0716C31.881 32.9641 31.6286 32.6065 31.6286 31.4854H29.6286C29.6286 32.838 29.9234 33.8564 30.6067 34.5133C31.2882 35.1685 32.1409 35.2494 32.6866 35.2649L32.7431 33.2657ZM31.6286 31.4854V17.7801H29.6286V31.4854H31.6286ZM30.6286 18.7801H34.545V16.7801H30.6286V18.7801ZM35.545 17.7801V17.0844H33.545V17.7801H35.545ZM34.545 16.0844H34.5435V18.0844H34.545V16.0844ZM35.5435 17.7801V17.0844H33.5435V17.7801H35.5435ZM30.6271 18.7801H34.5435V16.7801H30.6271V18.7801ZM31.6271 31.4853V17.7801H29.6271V31.4853H31.6271ZM32.7428 33.2656C32.2961 33.2531 32.1054 33.1811 31.9915 33.0717C31.8797 32.9644 31.6271 32.6071 31.6271 31.4853H29.6271C29.6271 32.8387 29.9222 33.8574 30.6062 34.5143C31.2882 35.1692 32.1414 35.2496 32.6868 35.2649L32.7428 33.2656ZM31.6286 17.0844V11.4493H29.6286V17.0844H31.6286ZM30.6286 10.4493H30.6271V12.4493H30.6286V10.4493ZM31.6271 17.0844V11.4493H29.6271V17.0844H31.6271ZM30.6286 16.0844H30.6271V18.0844H30.6286V16.0844ZM18.0707 33.8632C17.9459 33.8739 17.838 33.8873 17.7447 33.8989L17.9902 35.8838C18.0863 35.8719 18.1593 35.8629 18.2418 35.8559L18.0707 33.8632ZM17.1563 34.1638V34.8595H19.1563V34.1638H17.1563ZM18.4747 35.1118C18.4781 35.1106 18.481 35.1096 18.482 35.1093L17.8305 33.2184C17.8305 33.2184 17.8323 33.2177 17.8348 33.2169L18.4747 35.1118ZM17.1547 34.1644V34.8595H19.1547V34.1644H17.1547ZM18.0692 33.8631C17.9444 33.8739 17.8365 33.8873 17.7432 33.8988L17.9887 35.8837C18.0848 35.8718 18.1578 35.8629 18.2403 35.8558L18.0692 33.8631ZM17.7639 33.8965L17.7639 33.8965L17.9679 35.8861L17.968 35.8861L17.7639 33.8965ZM17.8659 33.8913H17.8659V35.8913H17.8659V33.8913ZM17.7432 33.8988C17.5022 33.9286 17.2322 33.9638 16.5004 33.9638V35.9638C17.3261 35.9638 17.679 35.922 17.9886 35.8837L17.7432 33.8988ZM16.5004 33.9638C16.47 33.9638 16.4401 33.9635 16.4106 33.9627L16.3605 35.9621C16.4072 35.9633 16.4538 35.9638 16.5004 35.9638V33.9638ZM16.5019 33.9639C16.4712 33.9639 16.4409 33.9635 16.411 33.9627L16.3602 35.9621C16.4074 35.9633 16.4547 35.9639 16.5019 35.9639V33.9639ZM17.7447 33.8989C17.5038 33.9287 17.2337 33.9639 16.5019 33.9639V35.9639C17.3276 35.9639 17.6805 35.9221 17.9902 35.8838L17.7447 33.8989ZM13.6644 16.7801H10.4586V18.7801H13.6644V16.7801ZM14.6644 17.7801V17.7801H12.6644V17.7801H14.6644ZM13.6644 16.7801H10.4586V18.7801H13.6644V16.7801ZM11.4586 17.7801V17.7801H9.45857V17.7801H11.4586ZM14.3396 12.4493H14.3412V10.4493H14.3396V12.4493ZM13.3396 11.4493V17.0844H15.3396V11.4493H13.3396ZM14.3396 18.0844H14.3412V16.0844H14.3396V18.0844ZM13.3412 11.4493V17.0844H15.3412V11.4493H13.3412ZM18.256 18.0844H18.2576V16.0844H18.256V18.0844ZM17.256 17.0844V17.7801H19.256V17.0844H17.256ZM18.256 16.7801H14.3396V18.7801H18.256V16.7801ZM13.3396 17.7801V31.4853H15.3396V17.7801H13.3396ZM13.3396 31.4853C13.3396 32.8387 13.6348 33.8574 14.3188 34.5143C15.0007 35.1692 15.8539 35.2496 16.3994 35.2649L16.4554 33.2656C16.0086 33.2531 15.818 33.1811 15.7041 33.0717C15.5923 32.9644 15.3396 32.6071 15.3396 31.4853H13.3396ZM13.3412 31.4854C13.3412 32.838 13.636 33.8564 14.3193 34.5133C15.0007 35.1685 15.8534 35.2494 16.3991 35.2649L16.4556 33.2657C16.0095 33.253 15.8191 33.1809 15.7054 33.0716C15.5936 32.9641 15.3412 32.6065 15.3412 31.4854H13.3412ZM13.3412 17.7801V31.4854H15.3412V17.7801H13.3412ZM18.2576 16.7801H14.3412V18.7801H18.2576V16.7801ZM17.2576 17.0844V17.7801H19.2576V17.0844H17.2576Z" fill="black" mask="url(#path-2-outside-1_133_386)"/>
</svg>
